<?xml version="1.0" encoding="UTF-8" standalone="no"?>
<!DOCTYPE svg PUBLIC "-//W3C//DTD SVG 1.1//EN"
 "http://www.w3.org/Graphics/SVG/1.1/DTD/svg11.dtd">
<!-- Generated by graphviz version 9.0.0 (0)
 -->
<!-- Pages: 1 -->
<svg width="137pt" height="577pt"
 viewBox="0.00 0.00 136.50 577.26" xmlns="http://www.w3.org/2000/svg" xmlns:xlink="http://www.w3.org/1999/xlink">
<g id="graph0" class="graph" transform="scale(1 1) rotate(0) translate(4 573.26)">
<polygon fill="white" stroke="none" points="-4,4 -4,-573.26 132.5,-573.26 132.5,4 -4,4"/>
<!-- p0 -->
<g id="node1" class="node">
<title>p0</title>
<ellipse fill="none" stroke="black" cx="108.38" cy="-532.63" rx="20.13" ry="20.13"/>
<text text-anchor="middle" x="108.38" y="-527.21" font-family="Times,serif" font-size="14.00">⬤</text>
<text text-anchor="middle" x="81.12" y="-555.96" font-family="Times,serif" font-size="14.00">P1</text>
</g>
<!-- t0 -->
<g id="node6" class="node">
<title>t0</title>
<polygon fill="black" stroke="black" points="108.38,-476.5 54.38,-476.5 54.38,-458.5 108.38,-458.5 108.38,-476.5"/>
<text text-anchor="middle" x="49.13" y="-479.7" font-family="Times,serif" font-size="14.00">t1</text>
</g>
<!-- p0&#45;&gt;t0 -->
<g id="edge1" class="edge">
<title>p0&#45;&gt;t0</title>
<path fill="none" stroke="black" d="M100.71,-513.71C97.19,-505.48 93.02,-495.73 89.45,-487.39"/>
<polygon fill="black" stroke="black" points="92.69,-486.06 85.54,-478.24 86.26,-488.81 92.69,-486.06"/>
</g>
<!-- p1 -->
<g id="node2" class="node">
<title>p1</title>
<ellipse fill="none" stroke="black" cx="90.38" cy="-404.5" rx="18" ry="18"/>
<text text-anchor="middle" x="65.25" y="-425.7" font-family="Times,serif" font-size="14.00">P2</text>
</g>
<!-- t1 -->
<g id="node7" class="node">
<title>t1</title>
<polygon fill="black" stroke="black" points="126.38,-350.5 72.38,-350.5 72.38,-332.5 126.38,-332.5 126.38,-350.5"/>
<text text-anchor="middle" x="67.13" y="-353.7" font-family="Times,serif" font-size="14.00">t2</text>
</g>
<!-- p1&#45;&gt;t1 -->
<g id="edge4" class="edge">
<title>p1&#45;&gt;t1</title>
<path fill="none" stroke="black" d="M92.93,-386.19C94.04,-378.7 95.34,-369.89 96.48,-362.16"/>
<polygon fill="black" stroke="black" points="99.92,-362.8 97.92,-352.4 92.99,-361.78 99.92,-362.8"/>
</g>
<!-- p2 -->
<g id="node3" class="node">
<title>p2</title>
<ellipse fill="none" stroke="black" cx="34.38" cy="-20.13" rx="20.13" ry="20.13"/>
<text text-anchor="middle" x="34.38" y="-14.7" font-family="Times,serif" font-size="14.00">⬤</text>
<text text-anchor="middle" x="7.12" y="-43.45" font-family="Times,serif" font-size="14.00">P3</text>
</g>
<!-- t2 -->
<g id="node8" class="node">
<title>t2</title>
<polygon fill="black" stroke="black" points="71.38,-220.25 17.38,-220.25 17.38,-202.25 71.38,-202.25 71.38,-220.25"/>
<text text-anchor="middle" x="12.13" y="-223.45" font-family="Times,serif" font-size="14.00">t3</text>
</g>
<!-- p2&#45;&gt;t2 -->
<g id="edge7" class="edge">
<title>p2&#45;&gt;t2</title>
<path fill="none" stroke="black" d="M30.36,-40.12C25.13,-68.04 17.61,-121.68 26.38,-166.25 28.07,-174.86 31.46,-183.9 34.84,-191.53"/>
<polygon fill="black" stroke="black" points="31.63,-192.92 39.1,-200.43 37.94,-189.9 31.63,-192.92"/>
</g>
<!-- p3 -->
<g id="node4" class="node">
<title>p3</title>
<ellipse fill="none" stroke="black" cx="53.38" cy="-148.25" rx="18" ry="18"/>
<text text-anchor="middle" x="28.25" y="-169.45" font-family="Times,serif" font-size="14.00">P4</text>
</g>
<!-- t3 -->
<g id="node9" class="node">
<title>t3</title>
<polygon fill="black" stroke="black" points="89.38,-94.25 35.38,-94.25 35.38,-76.25 89.38,-76.25 89.38,-94.25"/>
<text text-anchor="middle" x="30.13" y="-97.45" font-family="Times,serif" font-size="14.00">t4</text>
</g>
<!-- p3&#45;&gt;t3 -->
<g id="edge10" class="edge">
<title>p3&#45;&gt;t3</title>
<path fill="none" stroke="black" d="M55.93,-129.94C57.04,-122.44 58.34,-113.64 59.48,-105.9"/>
<polygon fill="black" stroke="black" points="62.92,-106.55 60.92,-96.14 55.99,-105.53 62.92,-106.55"/>
</g>
<!-- p4 -->
<g id="node5" class="node">
<title>p4</title>
<ellipse fill="none" stroke="black" cx="71.38" cy="-276.38" rx="20.13" ry="20.13"/>
<text text-anchor="middle" x="71.38" y="-270.95" font-family="Times,serif" font-size="14.00">⬤</text>
<text text-anchor="middle" x="47.5" y="-299.7" font-family="Times,serif" font-size="14.00">S</text>
</g>
<!-- p4&#45;&gt;t0 -->
<g id="edge2" class="edge">
<title>p4&#45;&gt;t0</title>
<path fill="none" stroke="black" d="M67.36,-296.37C62.13,-324.29 54.61,-377.94 63.38,-422.5 65.07,-431.11 68.46,-440.15 71.84,-447.78"/>
<polygon fill="black" stroke="black" points="68.63,-449.18 76.1,-456.68 74.94,-446.15 68.63,-449.18"/>
</g>
<!-- p4&#45;&gt;t2 -->
<g id="edge8" class="edge">
<title>p4&#45;&gt;t2</title>
<path fill="none" stroke="black" d="M63.71,-257.46C60.19,-249.23 56.02,-239.48 52.45,-231.14"/>
<polygon fill="black" stroke="black" points="55.69,-229.81 48.54,-221.99 49.26,-232.56 55.69,-229.81"/>
</g>
<!-- t0&#45;&gt;p1 -->
<g id="edge3" class="edge">
<title>t0&#45;&gt;p1</title>
<path fill="none" stroke="black" d="M82.63,-458.02C83.57,-451.65 84.91,-442.53 86.22,-433.67"/>
<polygon fill="black" stroke="black" points="89.66,-434.34 87.66,-423.93 82.73,-433.32 89.66,-434.34"/>
</g>
<!-- t1&#45;&gt;p0 -->
<g id="edge5" class="edge">
<title>t1&#45;&gt;p0</title>
<path fill="none" stroke="black" d="M104,-350.96C108.43,-359.6 114.83,-373.55 117.38,-386.5 125.08,-425.69 119.83,-471.87 114.69,-501.43"/>
<polygon fill="black" stroke="black" points="111.27,-500.68 112.88,-511.15 118.15,-501.96 111.27,-500.68"/>
</g>
<!-- t1&#45;&gt;p4 -->
<g id="edge6" class="edge">
<title>t1&#45;&gt;p4</title>
<path fill="none" stroke="black" d="M95.72,-332.25C92.67,-325.38 88.14,-315.18 83.82,-305.43"/>
<polygon fill="black" stroke="black" points="87.15,-304.31 79.9,-296.59 80.75,-307.15 87.15,-304.31"/>
</g>
<!-- t2&#45;&gt;p3 -->
<g id="edge9" class="edge">
<title>t2&#45;&gt;p3</title>
<path fill="none" stroke="black" d="M45.63,-201.77C46.57,-195.4 47.91,-186.28 49.22,-177.42"/>
<polygon fill="black" stroke="black" points="52.66,-178.08 50.66,-167.68 45.73,-177.06 52.66,-178.08"/>
</g>
<!-- t3&#45;&gt;p2 -->
<g id="edge11" class="edge">
<title>t3&#45;&gt;p2</title>
<path fill="none" stroke="black" d="M58.72,-76C55.67,-69.13 51.14,-58.92 46.82,-49.17"/>
<polygon fill="black" stroke="black" points="50.15,-48.06 42.9,-40.34 43.75,-50.9 50.15,-48.06"/>
</g>
<!-- t3&#45;&gt;p4 -->
<g id="edge12" class="edge">
<title>t3&#45;&gt;p4</title>
<path fill="none" stroke="black" d="M67,-94.71C71.43,-103.35 77.83,-117.3 80.38,-130.25 88.08,-169.44 82.83,-215.62 77.69,-245.18"/>
<polygon fill="black" stroke="black" points="74.27,-244.43 75.88,-254.9 81.15,-245.71 74.27,-244.43"/>
</g>
</g>
</svg>
